<?xml version="1.0" encoding="UTF-8"?><svg id="Layer_2" xmlns="http://www.w3.org/2000/svg" viewBox="0 0 318.88 317.87"><defs><style>.cls-1{fill:#c1272d;}</style></defs><g id="Layer_2-2"><path id="chest" class="cls-1" d="M318.43,50.83c-2.42-1.05-27.25-11.1-39.91-14.09-10.84-2.56-25.57-9.68-43.8-21.15-.53-.33-.95-.59-1.25-.78-6.43-3.96-20.11-10.87-25.09-13.36-1.38,1.26-2.88,2.45-4.49,3.58-.47,.58-1.09,1.24-1.93,1.96-.15,.13-.34,.2-.53,.2s-.38-.08-.54-.22c-1.15,.69-2.35,1.36-3.59,1.99,.05,.05,.1,.1,.13,.17,.21,.4,.05,.89-.34,1.09-1.59,.83-3.38,1.59-5.31,2.27-.09,.03-.18,.05-.27,.05-.33,0-.65-.21-.76-.54-.02-.05-.02-.11-.02-.16-1.25,.47-2.54,.91-3.86,1.31,.1,.43-.17,.86-.6,.96-1.76,.43-3.65,.81-5.61,1.14-.05,0-.09,.01-.13,.01-.25,0-.48-.13-.63-.32-1.43,.3-2.89,.57-4.38,.8-.13,.15-.31,.25-.52,.28-1.82,.2-3.73,.36-5.68,.48-.02,0-.03,0-.05,0-.04,0-.07-.02-.11-.02-2.09,.17-4.21,.26-6.36,.28v.66c0,.45-.36,.81-.81,.81s-.81-.36-.81-.81v-.65c-.27,0-.53,.01-.81,.01h-.5c-.66,0-1.3,0-1.94-.02-.14,0-.27-.05-.38-.12-1.6-.08-3.18-.19-4.74-.35-.14,.12-.33,.2-.53,.2-.02,0-.04,0-.06,0-1.93-.15-3.84-.36-5.68-.62-.32-.05-.57-.28-.66-.58-1.39-.26-2.75-.55-4.08-.87-.14,.27-.41,.45-.71,.45-.06,0-.12,0-.17-.02-1.9-.42-3.76-.91-5.54-1.46-.42-.13-.66-.58-.54-1-1.3-.45-2.56-.93-3.79-1.44,0,.02,0,.04-.01,.05-.13,.31-.43,.5-.75,.5-.1,0-.21-.02-.31-.06-1.81-.76-3.56-1.6-5.18-2.5-.39-.22-.53-.71-.31-1.1,0-.01,.02-.02,.03-.04-1.21-.68-2.36-1.39-3.47-2.13-.16,.19-.38,.3-.62,.3-.17,0-.34-.05-.48-.16-2.96-2.22-4.28-3.9-4.34-3.97-.12-.16-.17-.35-.16-.54-.46-.43-.91-.86-1.34-1.31-2.82,1.33-5.84,2.66-9.03,4.06-5.64,2.47-12.03,5.28-19.34,8.98-2.04,1.03-4.99,2.68-8.42,4.6-10.56,5.89-26.51,14.8-36.49,17.16C28.01,37.82,2.97,47.37,1.19,48.72c0,0-.62,.49-1.19,.78v3.44c.08-.05,.16-.09,.26-.1,.44-.09,.86,.21,.94,.65l1.04,5.57c.08,.44-.21,.86-.65,.94-.05,0-.1,.01-.15,.01-.14,0-.27-.05-.39-.11l.83,4.34c.12-.13,.26-.23,.45-.27,.44-.09,.86,.21,.94,.65l1.04,5.57c.08,.44-.21,.86-.65,.94-.05,0-.1,.01-.15,.01-.11,0-.22-.03-.32-.08l.82,4.26c.11-.1,.24-.19,.4-.22,.45-.09,.86,.21,.94,.65l1.04,5.57c.08,.44-.21,.86-.65,.94-.05,0-.1,.01-.15,.01-.09,0-.18-.02-.26-.05l.8,4.18c.1-.08,.21-.15,.35-.17,.44-.09,.86,.21,.94,.65l1.04,5.57c.08,.44-.21,.86-.65,.94-.05,0-.1,.01-.15,.01-.07,0-.13-.02-.2-.04l.79,4.13c.09-.06,.19-.1,.3-.12,.44-.09,.86,.21,.94,.65l1.04,5.57c.08,.44-.21,.86-.65,.94-.05,0-.1,.01-.15,.01s-.09-.02-.14-.02l.78,4.09c.08-.04,.16-.08,.25-.1,.44-.08,.86,.21,.94,.65l1.04,5.57c.08,.44-.21,.86-.65,.94-.05,0-.1,.01-.15,.01-.03,0-.05-.01-.08-.01l.78,4.06c.06-.03,.12-.06,.19-.08,.45-.09,.86,.21,.94,.65l1.04,5.57c.08,.44-.21,.86-.65,.94-.05,0-.1,.01-.15,.01,0,0-.01,0-.02,0l.77,4.03s.09-.05,.14-.06c.44-.09,.86,.21,.94,.65l1.04,5.57c.08,.44-.21,.86-.65,.94-.04,0-.08,0-.11,.01l.77,4.01s.06-.03,.09-.04c.44-.09,.86,.21,.94,.65l1.04,5.57c.08,.44-.21,.86-.65,.94-.02,0-.04,0-.06,0l.76,3.99s.02-.01,.03-.01c.44-.08,.86,.21,.94,.65l1.04,5.57c.08,.44-.21,.86-.65,.94l2.43,7.14c.6-.1,1.21,.2,1.43,.8,.03,.07,.07,.2,.14,.38,.04,.1,.08,.23,.14,.37,.25,.68,.66,1.77,1.18,3.19,.11,.31,.23,.63,.36,.96,.14,.37,.28,.76,.43,1.16,.23,.63,.48,1.31,.74,2.01,.48,1.31,1,2.74,1.56,4.27,.31,.85,.63,1.74,.96,2.65,.06,.17,.12,.33,.18,.5,.27,.75,.55,1.52,.83,2.3,.8,2.24,1.64,4.59,2.5,7.01,.24,.69,.49,1.38,.73,2.08,1.44,4.09,2.89,8.3,4.26,12.37,.23,.69,.46,1.37,.69,2.05,.59,1.76,1.15,3.48,1.69,5.15,.09,.28,.18,.55,.27,.83,1.79,5.6,3.22,10.49,3.95,13.79,.26,1.2,.58,2.59,.94,4.14,.06,.25,.12,.51,.18,.77,.14,.61,.29,1.24,.44,1.89,.06,.27,.13,.55,.19,.83,.16,.67,.32,1.36,.49,2.07,.03,.15,.07,.29,.1,.44,.61,2.58,1.27,5.4,1.97,8.39,.33,1.4,.66,2.84,.99,4.31,.18,.78,.36,1.56,.54,2.36,.15,.65,.3,1.31,.44,1.97,.18,.82,.37,1.65,.55,2.48,.96,4.37,1.92,8.89,2.81,13.41,.19,.95,.37,1.89,.55,2.84,.11,.58,.22,1.17,.33,1.75,.18,.98,.36,1.95,.53,2.92,.52,2.91,1,5.78,1.41,8.57,.25,1.68,.48,3.33,.68,4.94,.13,1.03,.25,2.04,.36,3.03,.12,1.09,.22,2.16,.31,3.2,.23,2.7,.36,5.22,.36,7.51,0,.71,0,1.41,0,2.09,0,3.09,0,5.97,0,8.66h101.88c0-.45,.36-.81,.81-.81h0c.45,0,.81,.36,.81,.81h60.06c.02-1.72,.04-3.41,.07-5.07,0-.46,.38-.82,.84-.82,.46,0,.82,.39,.82,.84-.03,1.64-.05,3.33-.07,5.04h36.26c0-2.74,0-5.66,0-8.8,0-1.61,.06-3.33,.18-5.16,0-.08,.01-.16,.02-.24,.11-1.69,.27-3.46,.47-5.3,.1-.91,.2-1.82,.32-2.76,.22-1.8,.48-3.65,.77-5.54,.07-.45,.14-.9,.21-1.36,.27-1.73,.56-3.49,.87-5.27,.1-.6,.21-1.19,.32-1.79,.3-1.67,.61-3.35,.94-5.03,.27-1.38,.54-2.77,.82-4.15,.34-1.69,.69-3.37,1.04-5.04,.65-3.07,1.31-6.1,1.97-9.05,.29-1.28,.57-2.55,.86-3.79,.88-3.86,1.73-7.51,2.52-10.84,.09-.36,.17-.72,.25-1.07,.1-.43,.2-.86,.3-1.27,.96-4.05,1.78-7.55,2.35-10.14,.13-.6,.29-1.26,.47-1.96,.04-.14,.07-.29,.11-.44,.11-.43,.23-.87,.35-1.33,.03-.12,.07-.25,.1-.38,.13-.46,.26-.93,.4-1.42,.12-.43,.25-.87,.38-1.32,.34-1.16,.71-2.39,1.11-3.66,.07-.24,.15-.48,.23-.73,.18-.57,.36-1.14,.54-1.72,.02-.05,.03-.11,.05-.16,.68-2.15,1.42-4.42,2.2-6.74,.07-.2,.14-.41,.2-.61,.47-1.41,.95-2.84,1.44-4.28,.32-.93,.64-1.87,.96-2.81,.03-.08,.06-.16,.08-.24,1.04-3.03,2.11-6.07,3.15-9.01,.35-.99,.7-1.97,1.04-2.93,.22-.63,.44-1.24,.66-1.86,.48-1.34,.95-2.64,1.4-3.9,.2-.57,.41-1.13,.6-1.67,.19-.51,.37-1.01,.55-1.5,.19-.52,.38-1.04,.56-1.54,.29-.8,.57-1.56,.84-2.29,.06-.16,.12-.32,.17-.47,.16-.42,.31-.84,.45-1.23,.35-.96,.67-1.83,.96-2.62,.88-2.38,1.45-3.91,1.57-4.23,.02-.06,.07-.11,.1-.17l3.31-9.71,.1-.53c-.15,.15-.35,.25-.57,.25-.05,0-.1,0-.15-.01-.44-.08-.73-.5-.65-.94l1.04-5.57c.08-.44,.51-.73,.94-.65,.3,.06,.52,.27,.61,.54l.93-4.84c-.15,.2-.38,.33-.64,.33-.05,0-.1,0-.15-.01-.44-.08-.73-.5-.65-.94l1.04-5.57c.08-.44,.52-.73,.94-.65,.34,.06,.58,.33,.64,.65l.98-5.1c-.13,.29-.41,.49-.73,.49-.05,0-.1,0-.15-.01-.44-.08-.73-.5-.65-.94l1.04-5.57c.08-.44,.51-.73,.94-.65,.43,.08,.72,.49,.65,.93l14.77-77.07v-3.38l-.45-.2ZM80.75,215.82c.45-.11,.89,.18,1,.62,.48,2.1,.76,3.38,.78,3.46,0,0,.24,.76,.65,2.14,.13,.44-.12,.9-.56,1.03-.08,.02-.16,.04-.24,.04-.36,0-.69-.23-.79-.59-.43-1.42-.66-2.18-.66-2.18-.02-.07-.3-1.36-.8-3.52-.1-.45,.18-.89,.62-1Zm-2.75-11.3c.44-.1,.9,.16,1.01,.6,.51,2.02,.98,3.92,1.4,5.65,.11,.45-.17,.89-.61,1-.07,.02-.13,.02-.2,.02-.37,0-.71-.25-.81-.63-.42-1.73-.89-3.62-1.39-5.63-.11-.44,.16-.9,.6-1.01Zm-2-10.65c.53,1.89,1.05,3.77,1.54,5.62,.12,.44-.15,.9-.59,1.02-.07,.02-.14,.03-.21,.03-.37,0-.7-.25-.8-.62-.49-1.84-1-3.72-1.53-5.59-.12-.44,.13-.9,.57-1.02,.44-.12,.9,.13,1.02,.57Zm-2.03-11.38c.31,2.22,.6,4.16,.86,5.76,.07,.45-.23,.88-.69,.95-.05,0-.09,.01-.13,.01-.4,0-.75-.29-.82-.7-.26-1.61-.55-3.56-.86-5.8-.06-.45,.25-.87,.71-.94,.46-.05,.87,.25,.94,.71Zm-1.49-11.56c.25,2.03,.49,3.96,.72,5.78,.06,.45-.26,.87-.72,.93-.04,0-.07,0-.11,0-.41,0-.77-.31-.82-.72-.23-1.82-.47-3.75-.72-5.79-.05-.46,.27-.87,.72-.92,.46-.06,.87,.27,.92,.72Zm-1.36-11.57c.23,1.99,.45,3.92,.67,5.79,.05,.46-.27,.87-.73,.92-.03,0-.07,0-.1,0-.41,0-.77-.31-.82-.73-.22-1.87-.44-3.8-.67-5.79-.05-.46,.27-.87,.73-.92,.46-.06,.87,.27,.92,.73Zm-1.29-11.57l.64,5.79c.05,.46-.28,.87-.73,.92-.03,0-.06,0-.09,0-.42,0-.78-.31-.82-.74l-.64-5.79c-.05-.46,.28-.87,.73-.92,.47-.04,.87,.28,.92,.73Zm-1.25-11.58l.62,5.79c.05,.46-.28,.86-.74,.91-.03,0-.06,0-.09,0-.42,0-.78-.32-.82-.74l-.62-5.79c-.05-.46,.28-.86,.74-.91,.46-.05,.86,.28,.91,.74Zm-1.22-11.58l.61,5.79c.05,.46-.28,.86-.74,.91-.03,0-.06,0-.09,0-.42,0-.78-.32-.82-.74l-.61-5.79c-.05-.46,.28-.86,.74-.91,.46-.06,.86,.28,.91,.74Zm-1.19-11.58l.59,5.79c.05,.46-.28,.86-.74,.91-.03,0-.06,0-.09,0-.42,0-.78-.32-.82-.75l-.59-5.79c-.05-.46,.29-.86,.74-.91,.44-.05,.86,.29,.91,.74Zm-1.17-11.57l.58,5.78c.05,.46-.29,.86-.74,.91-.03,0-.06,0-.08,0-.42,0-.78-.32-.83-.75l-.58-5.78c-.05-.46,.29-.86,.74-.91,.46-.04,.86,.29,.91,.74Zm-1.16-11.59l.58,5.79c.05,.46-.29,.86-.74,.91-.03,0-.06,0-.08,0-.42,0-.78-.32-.83-.75l-.58-5.79c-.04-.46,.29-.86,.74-.91,.45-.03,.86,.29,.91,.74Zm-1.14-11.59l.57,5.79c.04,.46-.29,.86-.74,.91-.03,0-.06,0-.08,0-.42,0-.78-.32-.83-.75l-.57-5.79c-.04-.46,.29-.86,.75-.91,.45-.05,.86,.29,.91,.75Zm-1.13-11.59l.56,5.8c.04,.46-.29,.86-.75,.91-.03,0-.05,0-.08,0-.42,0-.78-.32-.83-.75l-.56-5.8c-.04-.46,.29-.86,.75-.91,.47-.05,.86,.29,.91,.75Zm-1.12-11.6l.56,5.8c.04,.46-.29,.86-.75,.91-.03,0-.05,0-.08,0-.42,0-.78-.32-.83-.75l-.56-5.8c-.04-.46,.29-.86,.75-.91,.46-.04,.86,.29,.91,.75Zm-1.11-11.61l.55,5.81c.04,.46-.29,.86-.75,.91-.03,0-.05,0-.08,0-.42,0-.78-.32-.83-.75l-.55-5.81c-.04-.46,.29-.86,.75-.9,.46-.04,.86,.29,.9,.75Zm-2-12.42c.47-.05,.86,.29,.9,.75l.55,5.85c.04,.46-.29,.86-.75,.9-.03,0-.05,0-.08,0-.42,0-.79-.32-.83-.75l-.55-5.85c-.04-.46,.29-.86,.75-.9Zm28.47,203.19c-.07,.02-.15,.03-.22,.03-.37,0-.7-.24-.8-.61-.57-2.09-1.09-3.96-1.56-5.6-.13-.44,.13-.9,.57-1.02,.44-.13,.9,.13,1.02,.57,.47,1.64,.99,3.52,1.56,5.62,.12,.44-.14,.9-.58,1.02Zm2.93,11.26c-.07,.02-.14,.03-.2,.03-.37,0-.71-.25-.8-.63-.5-1.97-.98-3.85-1.44-5.63-.12-.44,.15-.9,.59-1.01,.44-.12,.9,.15,1.01,.59,.47,1.78,.95,3.67,1.45,5.64,.11,.44-.16,.9-.6,1.01Zm2.53,11.34c-.38,0-.72-.26-.81-.64-.45-1.94-.9-3.83-1.34-5.65-.11-.45,.17-.89,.61-1,.44-.11,.89,.17,1,.61,.44,1.83,.89,3.72,1.34,5.67,.1,.45-.17,.89-.62,1-.06,.01-.13,.02-.19,.02Zm2.52,11.36c-.38,0-.73-.27-.81-.66-.41-1.93-.82-3.83-1.23-5.68-.1-.45,.18-.89,.63-.99,.45-.1,.89,.18,.99,.63,.41,1.86,.82,3.76,1.23,5.69,.1,.45-.19,.89-.64,.98-.06,.01-.12,.02-.17,.02Zm2.29,11.4c-.39,0-.74-.28-.81-.68-.37-1.92-.74-3.83-1.11-5.7-.09-.45,.2-.89,.65-.98,.45-.1,.89,.2,.98,.65,.38,1.88,.75,3.78,1.12,5.71,.08,.45-.21,.88-.66,.97-.05,0-.1,.01-.16,.01Zm1.23,10.76c-.32-1.93-.65-3.83-.99-5.72-.08-.45,.22-.88,.67-.96,.45-.08,.88,.22,.96,.67,.34,1.89,.67,3.81,.99,5.74,.08,.45-.23,.88-.68,.96-.05,0-.09,.01-.14,.01-.4,0-.75-.29-.82-.69Zm1.77,11.47c-.27-1.92-.55-3.84-.85-5.74-.07-.45,.24-.88,.69-.95,.45-.07,.88,.24,.95,.69,.29,1.91,.58,3.83,.85,5.76,.06,.45-.25,.87-.71,.94-.04,0-.08,0-.12,0-.41,0-.76-.3-.82-.71Zm2.39,12.23s-.06,0-.09,0c-.42,0-.78-.31-.82-.74-.22-1.92-.45-3.84-.69-5.75-.06-.46,.26-.87,.72-.93,.46-.06,.87,.26,.93,.72,.24,1.92,.48,3.85,.69,5.78,.05,.46-.28,.87-.73,.92Zm34.97-99.8c-.46,.38-11.32,9.32-16.87,11.46-2.91,1.12-10.87,1.82-20.21,1.82s-20.6-.73-29.12-2.49c-17.36-3.58-27.07-21.27-27.48-22.02-.05-.1-.09-.21-.1-.32-.03-.33,.13-.65,.44-.82,.41-.22,.92-.07,1.14,.34,.1,.18,9.76,17.75,26.34,21.17,17.63,3.63,43.26,2.73,48.38,.75,5.3-2.05,16.3-11.1,16.41-11.19,.36-.29,.89-.24,1.18,.11,.15,.18,.21,.4,.19,.62-.02,.21-.12,.42-.3,.57Zm26.02,97.9c0,.45-.36,.81-.81,.81h0c-.45,0-.81-.36-.81-.81v-5.67c0-.45,.37-.81,.82-.81h0c.45,0,.81,.36,.81,.81v5.67Zm0-11.34c0,.45-.36,.81-.81,.81h0c-.45,0-.81-.36-.81-.81v-5.67c0-.45,.37-.81,.82-.81h0c.45,0,.81,.36,.81,.81v5.67Zm0-11.34c0,.45-.36,.81-.81,.81h0c-.45,0-.81-.36-.81-.81v-5.67c0-.45,.37-.81,.82-.81h0c.45,0,.81,.36,.81,.81v5.67Zm0-11.34c0,.45-.36,.81-.81,.81h0c-.45,0-.81-.36-.81-.81v-5.67c0-.45,.37-.81,.82-.81h0c.45,0,.81,.36,.81,.81v5.67Zm0-11.34c0,.45-.36,.81-.81,.81h0c-.45,0-.81-.36-.81-.81v-5.67c0-.45,.37-.81,.82-.81h0c.45,0,.81,.36,.81,.81v5.67Zm0-11.34c0,.45-.36,.81-.81,.81h0c-.45,0-.81-.36-.81-.81v-5.67c0-.45,.37-.81,.82-.81h0c.45,0,.81,.36,.81,.81v5.67Zm0-11.34c0,.45-.36,.81-.81,.81h0c-.45,0-.81-.36-.81-.81v-5.67c0-.45,.37-.81,.82-.81h0c.45,0,.81,.36,.81,.81v5.67Zm0-11.34c0,.45-.36,.81-.81,.81h0c-.45,0-.81-.36-.81-.81v-5.67c0-.45,.37-.81,.82-.81h0c.45,0,.81,.36,.81,.81v5.67Zm0-11.34c0,.45-.36,.81-.81,.81h0c-.45,0-.81-.36-.81-.81v-5.67c0-.45,.37-.81,.82-.81h0c.45,0,.81,.36,.81,.81v5.67Zm0-11.34c0,.45-.36,.81-.81,.81h0c-.45,0-.81-.36-.81-.81v-5.67c0-.45,.37-.81,.82-.81h0c.45,0,.81,.36,.81,.81v5.67Zm0-11.34c0,.45-.36,.81-.81,.81h0c-.45,0-.81-.36-.81-.81v-5.67c0-.45,.37-.81,.82-.81h0c.45,0,.81,.36,.81,.81v5.67Zm0-11.34c0,.45-.36,.81-.81,.81h0c-.45,0-.81-.36-.81-.81v-5.67c0-.45,.37-.81,.82-.81h0c.45,0,.81,.36,.81,.81v5.67Zm0-11.34c0,.45-.36,.81-.81,.81h0c-.45,0-.81-.36-.81-.81v-5.67c0-.45,.37-.81,.82-.81h0c.45,0,.81,.36,.81,.81v5.67Zm0-11.34c0,.45-.36,.81-.81,.81h0c-.45,0-.81-.36-.81-.81v-5.67c0-.45,.37-.81,.82-.81h0c.45,0,.81,.36,.81,.81v5.67Zm0-11.34c0,.45-.36,.81-.81,.81h0c-.45,0-.81-.36-.81-.81v-5.67c0-.45,.37-.81,.82-.81h0c.45,0,.81,.36,.81,.81v5.67Zm0-11.34c0,.45-.36,.81-.81,.81h0c-.45,0-.81-.36-.81-.81v-5.67c0-.45,.37-.81,.82-.81h0c.45,0,.81,.36,.81,.81v5.67Zm0-11.34c0,.45-.36,.81-.81,.81h0c-.45,0-.81-.36-.81-.81v-5.67c0-.45,.37-.81,.82-.81h0c.45,0,.81,.36,.81,.81v5.67Zm0-11.34c0,.45-.36,.81-.81,.81h0c-.45,0-.81-.36-.81-.81v-5.67c0-.45,.37-.81,.82-.81h0c.45,0,.81,.36,.81,.81v5.67Zm0-11.34c0,.45-.36,.81-.81,.81h0c-.45,0-.81-.36-.81-.81v-5.67c0-.45,.37-.81,.82-.81h0c.45,0,.81,.36,.81,.81v5.67Zm0-11.34c0,.45-.36,.81-.81,.81h0c-.45,0-.81-.36-.81-.81v-5.67c0-.45,.37-.81,.82-.81h0c.45,0,.81,.36,.81,.81v5.67Zm0-11.34c0,.45-.36,.81-.81,.81h0c-.45,0-.81-.36-.81-.81v-5.67c0-.45,.37-.81,.82-.81h0c.45,0,.81,.36,.81,.81v5.67Zm0-11.34c0,.45-.36,.81-.81,.81h0c-.45,0-.81-.36-.81-.81v-5.67c0-.45,.37-.81,.82-.81h0c.45,0,.81,.36,.81,.81v5.67Zm0-11.34c0,.45-.36,.81-.81,.81h0c-.45,0-.81-.36-.81-.81v-5.67c0-.45,.37-.81,.82-.81h0c.45,0,.81,.36,.81,.81v5.67Zm0-11.34c0,.45-.36,.81-.81,.81h0c-.45,0-.81-.36-.81-.81v-5.67c0-.45,.37-.81,.82-.81h0c.45,0,.81,.36,.81,.81v5.67Zm0-11.34c0,.45-.36,.81-.81,.81h0c-.45,0-.81-.36-.81-.81v-5.67c0-.45,.37-.81,.82-.81h0c.45,0,.81,.36,.81,.81v5.67Zm0-11.34c0,.45-.36,.81-.81,.81h0c-.45,0-.81-.36-.81-.81v-5.67c0-.45,.37-.81,.82-.81h0c.45,0,.81,.36,.81,.81v5.67Zm97.73,8.4c.09-.45,.51-.75,.97-.66,.45,.09,.75,.52,.66,.97-.3,1.59-.66,3.5-1.07,5.71-.07,.4-.42,.68-.82,.68-.05,0-.1,0-.15-.01-.45-.08-.75-.51-.67-.97,.4-2.22,.76-4.13,1.07-5.73Zm-2.09,11.46c.08-.45,.51-.75,.96-.67,.45,.08,.75,.51,.67,.96-.32,1.79-.65,3.7-.99,5.73-.07,.4-.42,.69-.82,.69-.05,0-.09,0-.14-.01-.45-.08-.76-.51-.68-.96,.34-2.03,.68-3.94,.99-5.73Zm-1.95,11.47c.07-.45,.51-.75,.95-.69,.45,.07,.76,.5,.69,.95-.3,1.84-.61,3.76-.93,5.74-.06,.41-.42,.7-.82,.7-.04,0-.09,0-.13-.01-.45-.07-.76-.5-.69-.95,.31-1.98,.62-3.9,.93-5.75Zm-1.82,11.49c.07-.45,.49-.77,.95-.69,.45,.07,.76,.49,.69,.95-.29,1.87-.57,3.78-.86,5.74-.06,.41-.42,.71-.82,.71-.04,0-.08,0-.12,0-.45-.07-.77-.49-.7-.94,.29-1.96,.58-3.88,.86-5.75Zm-1.7,11.51c.06-.45,.5-.77,.94-.71,.45,.06,.77,.48,.71,.94-.27,1.88-.53,3.8-.8,5.75-.06,.42-.41,.72-.82,.72-.04,0-.08,0-.11,0-.46-.06-.77-.48-.71-.93,.27-1.96,.53-3.88,.8-5.76Zm-1.57,11.53c.06-.45,.49-.78,.93-.72,.45,.06,.77,.48,.72,.93-.25,1.9-.49,3.82-.73,5.76-.05,.42-.41,.73-.82,.73-.03,0-.07,0-.1,0-.46-.06-.78-.47-.72-.93,.24-1.95,.49-3.87,.73-5.77Zm-1.44,11.55c.05-.45,.46-.77,.92-.73,.46,.05,.78,.47,.73,.92-.23,1.9-.45,3.83-.66,5.77-.05,.42-.41,.74-.82,.74-.03,0-.06,0-.09,0-.46-.05-.78-.46-.73-.92,.22-1.94,.44-3.87,.67-5.78Zm-1.3,11.56c.05-.46,.46-.78,.91-.74,.46,.05,.79,.46,.74,.91-.2,1.91-.4,3.84-.59,5.78-.04,.43-.4,.75-.83,.75-.03,0-.05,0-.08,0-.46-.05-.79-.45-.74-.91,.19-1.94,.39-3.87,.59-5.79Zm-1.15,11.58c.04-.46,.44-.8,.9-.75,.46,.04,.79,.45,.75,.9-.18,1.92-.35,3.85-.51,5.78-.04,.43-.4,.76-.83,.76-.02,0-.05,0-.07,0-.46-.04-.8-.44-.76-.9,.17-1.94,.34-3.87,.51-5.8Zm-1.16,13.94l.18-2.34c.03-.46,.42-.81,.89-.76,.46,.04,.8,.43,.76,.89l-.18,2.34c-.09,1.16-.18,2.32-.27,3.46-.04,.43-.4,.76-.83,.76-.02,0-.05,0-.07,0-.46-.04-.8-.44-.76-.9,.09-1.14,.18-2.29,.27-3.45Zm-.78,9.22c.04-.46,.45-.79,.9-.75,.46,.04,.79,.45,.75,.9-.19,1.97-.38,3.9-.59,5.79-.05,.42-.41,.74-.82,.74-.03,0-.06,0-.09,0-.46-.05-.79-.46-.74-.92,.21-1.88,.4-3.8,.59-5.77Zm-1.26,11.52c.06-.45,.47-.78,.93-.72,.46,.06,.78,.47,.72,.93-.24,1.97-.5,3.89-.76,5.77-.06,.41-.41,.72-.82,.72-.04,0-.08,0-.12,0-.45-.06-.77-.48-.71-.94,.26-1.87,.51-3.79,.75-5.75Zm-1.6,11.48c.07-.45,.49-.77,.95-.69,.45,.07,.76,.49,.69,.95-.31,1.97-.62,3.89-.94,5.75-.07,.4-.42,.69-.82,.69-.05,0-.09,0-.14-.01-.45-.08-.75-.51-.68-.96,.32-1.85,.63-3.76,.93-5.72Zm-3.11,17.1c.38-1.82,.76-3.71,1.14-5.68,.09-.45,.52-.75,.97-.66,.45,.09,.75,.52,.66,.97-.38,1.98-.76,3.88-1.15,5.71-.08,.39-.43,.66-.81,.66-.06,0-.11,0-.17-.02-.45-.09-.74-.53-.64-.98Zm-2.63,11.28c.45-1.78,.91-3.65,1.38-5.62,.11-.45,.55-.72,1-.62,.45,.1,.72,.55,.62,1-.46,1.99-.93,3.87-1.38,5.66-.1,.38-.43,.62-.8,.62-.07,0-.14,0-.21-.03-.44-.11-.71-.57-.6-1.01Zm-3.17,11.13c.56-1.78,1.12-3.65,1.66-5.54,.13-.44,.59-.7,1.03-.57,.44,.13,.7,.58,.57,1.03-.54,1.91-1.11,3.79-1.67,5.59-.11,.35-.44,.58-.79,.58-.08,0-.17-.01-.25-.04-.44-.14-.68-.6-.54-1.04Zm-3.91,10.86c.67-1.59,1.36-3.4,2.07-5.38,.15-.43,.63-.66,1.06-.5,.43,.15,.66,.63,.5,1.06-.71,2-1.42,3.84-2.1,5.46-.13,.32-.44,.51-.77,.51-.11,0-.22-.02-.32-.06-.42-.18-.62-.66-.45-1.09Zm-5.55,81.18c-.01,.45-.38,.81-.83,.81,0,0-.02,0-.02,0-.46-.01-.82-.4-.8-.85,.06-2,.13-3.94,.21-5.82,.02-.46,.37-.82,.87-.79,.46,.02,.81,.41,.79,.87-.08,1.87-.15,3.81-.21,5.79Zm.52-11.58c-.03,.44-.39,.78-.83,.78-.02,0-.04,0-.05,0-.46-.03-.8-.42-.78-.88,.13-2.04,.27-4,.43-5.81,.04-.46,.45-.79,.9-.75,.46,.04,.79,.44,.75,.9-.16,1.8-.3,3.74-.43,5.77Zm.96-11.55c-.04,.43-.4,.75-.83,.75-.03,0-.05,0-.08,0-.46-.04-.79-.45-.75-.9l.54-5.78c.04-.46,.44-.79,.9-.75,.46,.04,.79,.45,.75,.9l-.54,5.79Zm1.07-11.57c-.04,.43-.4,.75-.83,.75-.03,0-.05,0-.08,0-.46-.04-.79-.45-.75-.9l.52-5.78c.04-.46,.42-.81,.9-.75,.46,.04,.79,.44,.75,.9l-.52,5.79Zm1.03-11.57c-.04,.43-.4,.76-.83,.76-.02,0-.05,0-.07,0-.46-.04-.79-.44-.75-.9,.18-2.04,.35-3.97,.5-5.78,.04-.46,.44-.8,.9-.76,.46,.04,.8,.44,.76,.9-.15,1.82-.32,3.75-.5,5.79Zm.99-11.58c-.04,.43-.4,.76-.83,.76-.02,0-.05,0-.07,0-.46-.04-.8-.44-.76-.9,.18-2.11,.33-4.04,.47-5.78,.04-.46,.43-.81,.89-.76,.46,.04,.8,.44,.76,.89-.14,1.75-.3,3.68-.47,5.79Zm.92-11.58c-.03,.44-.4,.77-.83,.77-.02,0-.04,0-.06,0-.46-.03-.8-.43-.76-.89,.19-2.47,.32-4.37,.42-5.78,.03-.46,.44-.79,.88-.77,.46,.03,.8,.43,.77,.88-.1,1.42-.23,3.32-.42,5.79Zm46.75-32.58c-.41,.75-10.12,18.44-27.48,22.02-8.53,1.76-19.55,2.49-29.12,2.49s-17.3-.7-20.21-1.82c-5.55-2.15-16.41-11.09-16.87-11.46-.18-.15-.28-.35-.3-.57,0-.02,0-.04,0-.06,0-.09,0-.17,.03-.26,.03-.1,.08-.2,.16-.29,.3-.36,.83-.41,1.18-.11,.11,.09,11.11,9.14,16.41,11.19,5.12,1.98,30.75,2.89,48.38-.75,16.59-3.42,26.24-20.99,26.34-21.17,.22-.41,.73-.56,1.14-.34,.31,.17,.47,.49,.44,.82-.01,.11-.04,.22-.1,.32Zm28.56-79.1c-.07,.39-.41,.66-.79,.66-.05,0-.1,0-.15-.01-.44-.08-.73-.5-.65-.94l1.04-5.57c.08-.44,.52-.73,.94-.65,.44,.08,.73,.5,.65,.94l-1.04,5.57Zm2.08-11.15c-.07,.39-.41,.66-.8,.66-.05,0-.1,0-.15-.01-.44-.08-.73-.5-.65-.94l1.04-5.57c.08-.44,.5-.73,.94-.65,.44,.08,.73,.5,.65,.94l-1.04,5.57Zm2.08-11.15c-.07,.39-.41,.66-.79,.66-.05,0-.1,0-.15-.01-.44-.08-.73-.5-.65-.94l1.04-5.57c.08-.44,.52-.73,.94-.65,.44,.08,.73,.5,.65,.94l-1.04,5.57Zm2.08-11.14c-.07,.39-.41,.66-.79,.66-.05,0-.1,0-.15-.01-.44-.08-.73-.5-.65-.94l1.04-5.57c.08-.44,.51-.73,.94-.65,.44,.08,.73,.5,.65,.94l-1.04,5.57Zm2.08-11.15c-.07,.39-.41,.66-.79,.66-.05,0-.1,0-.15-.01-.44-.08-.73-.5-.65-.94l1.04-5.57c.08-.44,.51-.73,.94-.65,.44,.08,.73,.5,.65,.94l-1.04,5.57Zm2.08-11.15c-.07,.39-.41,.66-.79,.66-.05,0-.1,0-.15-.01-.44-.08-.73-.5-.65-.94l1.04-5.57c.08-.44,.5-.73,.94-.65,.44,.08,.73,.5,.65,.94l-1.04,5.57Zm2.08-11.15c-.07,.39-.41,.66-.79,.66-.05,0-.1,0-.15-.01-.44-.08-.73-.5-.65-.94l1.04-5.57c.08-.44,.52-.73,.94-.65,.44,.08,.73,.5,.65,.94l-1.04,5.57Z"/></g></svg>